<?xml version="1.0" standalone="no"?>
<!DOCTYPE svg PUBLIC "-//W3C//DTD SVG 20010904//EN"
 "http://www.w3.org/TR/2001/REC-SVG-20010904/DTD/svg10.dtd">
<svg version="1.0" xmlns="http://www.w3.org/2000/svg"
 width="1024.000000pt" height="1024.000000pt" viewBox="0 0 1024.000000 1024.000000"
 preserveAspectRatio="xMidYMid meet">

<g transform="translate(0.000000,1024.000000) scale(0.100000,-0.100000)"
fill="#000000" stroke="none">
<path d="M4900 7369 c-575 -60 -1103 -323 -1504 -750 -44 -46 -95 -105 -115
-131 l-35 -48 -226 0 c-126 0 -242 -5 -263 -11 -47 -13 -106 -63 -123 -106
-33 -77 -2 -174 69 -221 40 -27 43 -27 184 -24 79 2 143 1 143 -2 0 -3 -22
-51 -50 -107 -27 -56 -60 -132 -72 -170 l-22 -69 -180 0 c-155 0 -187 -3 -221
-19 -153 -71 -153 -261 0 -332 33 -15 65 -19 183 -19 l142 0 -6 -24 c-3 -13
-9 -91 -12 -172 l-7 -149 -145 -5 c-112 -4 -152 -9 -177 -22 -127 -70 -116
-261 19 -327 39 -18 62 -21 190 -21 l145 0 12 -62 c13 -66 54 -230 66 -260 7
-17 -6 -18 -182 -18 -181 0 -191 -1 -239 -25 -112 -56 -138 -186 -56 -277 60
-66 69 -68 370 -68 l269 0 80 -122 c260 -395 554 -660 948 -853 318 -157 613
-230 965 -242 398 -12 739 62 1120 245 219 105 408 241 596 430 136 136 205
223 321 400 l93 142 123 0 c132 0 180 13 224 61 28 31 53 90 53 126 -1 71 -66
152 -138 173 -26 8 -483 10 -1507 8 -1469 -3 -1470 -3 -1510 -24 -61 -32 -99
-93 -99 -157 0 -63 22 -106 77 -151 l39 -31 637 -5 637 -5 36 -24 c52 -36 79
-81 84 -143 6 -65 -22 -121 -76 -152 -34 -20 -52 -21 -620 -26 -583 -5 -585
-5 -627 -27 -87 -47 -121 -169 -69 -245 l24 -36 -37 -6 c-76 -12 -221 -7 -254
10 -75 39 -269 179 -362 261 -117 105 -182 174 -278 298 l-69 90 39 8 c71 14
153 105 153 169 0 41 -20 97 -47 128 -45 55 -76 64 -217 70 l-130 5 -23 60
c-150 386 -161 887 -28 1289 101 307 284 598 522 827 407 393 961 600 1497
560 285 -21 504 -82 765 -212 188 -92 298 -165 445 -291 l109 -93 -829 -5
c-758 -5 -832 -6 -860 -22 -68 -37 -113 -124 -100 -193 9 -46 57 -109 99 -129
33 -15 133 -17 1312 -16 1391 0 1299 -4 1357 57 64 68 59 176 -12 244 -53 51
-98 59 -322 59 l-193 0 -53 64 c-292 352 -706 629 -1152 770 -283 90 -612 124
-900 95z"/>
<path d="M3701 5708 c-50 -24 -96 -82 -105 -133 -15 -76 33 -162 109 -196 38
-18 120 -19 2020 -19 1947 0 1981 1 2023 20 137 62 150 243 25 322 l-38 23
-1995 3 -1995 2 -44 -22z"/>
<path d="M3675 5001 c-114 -51 -146 -188 -68 -290 77 -101 244 -88 314 25 75
122 -20 284 -166 284 -22 0 -58 -9 -80 -19z"/>
<path d="M4468 4990 c-104 -55 -128 -189 -51 -281 57 -68 -84 -63 1698 -60
1269 2 1616 5 1640 15 17 7 45 29 62 49 76 86 47 226 -58 279 -32 17 -130 18
-1644 18 -1577 -1 -1611 -1 -1647 -20z"/>
</g>
</svg>
